<svg xmlns="http://www.w3.org/2000/svg" viewBox="0 0 100 22.14" width="100" height="22.14">
  <defs>
    <style>.a{fill:#0a253e;}</style>
  </defs>
  <title>city university logo</title>
  <path class="a" d="M7.58,4.93A2.45,2.45,0,0,0,5.2,3C3.53,3,2.51,4.6,2.51,7.68s.87,4.63,2.76,4.63c1.13,0,1.82-.4,2.59-1.94l2.31.62a4.8,4.8,0,0,1-4.9,3.43C1.93,14.42,0,12,0,7.68S1.93.93,5.28.93A4.22,4.22,0,0,1,9.86,4.39ZM11.22,3V.93h2.27V3Zm2.27,11.2H11.22V4.78h2.27ZM15.7,4.78V1.67H18V4.79H19.8V6.62H18V12c0,.51.26.66.82.66a6.12,6.12,0,0,0,1-.18v1.84a15.26,15.26,0,0,1-1.78.15c-1.68,0-2.33-.84-2.33-2.19V6.6H14.39V4.78Zm4.56,11a4.3,4.3,0,0,0,.95.07,1.4,1.4,0,0,0,1.47-.74,2.4,2.4,0,0,0,.37-1.1,4.81,4.81,0,0,0-.29-1.13L20.24,4.78h2.28l1.56,5.83h0l1.61-5.83H28l-3,9.48C24,17,23.2,17.7,21.35,17.7a8,8,0,0,1-1.1-.07ZM36.57,1.11h2.51V9.33c0,3.84-2.36,5.09-5,5.09s-5-1.25-5-5.09V1.11h2.51V9.44c0,2.13.83,2.87,2.53,2.87s2.52-.73,2.52-2.87Zm5.9,3.67V6.06h0A3.92,3.92,0,0,1,45.3,4.6,2.54,2.54,0,0,1,48,6.89a2.57,2.57,0,0,1,0,.48v6.87H46.72V7.4c0-1.25-.6-1.67-1.54-1.67a4.39,4.39,0,0,0-2.71,1.44v7.07H41.15V4.78ZM51.78.93V2.49H50.47V.93ZM50.47,4.78h1.31v9.46H50.47Zm7.38,9.46H56.11L53.2,4.78h1.32l2.4,7.82h0l2.4-7.82H60.7Zm11-2a3.8,3.8,0,0,1-3.64,2.21c-2.16,0-4.11-1.46-4.11-4.92,0-3,1.51-4.89,3.84-4.89,2,0,3.6,1.27,3.6,4.29v.87H62.36c0,2.08,1.24,3.53,2.8,3.53a2.9,2.9,0,0,0,2.62-1.6Zm-1.6-3.58c0-1.74-.84-2.91-2.26-2.91-1.58,0-2.43,1.16-2.54,2.91Zm3-3.86h1.31V6.66h0a3.24,3.24,0,0,1,3.08-2V6C73,6,72.11,7.06,71.49,9v5.24H70.18Zm6,7.06a3.19,3.19,0,0,0,2.71,1.45c1.42,0,2-.76,2-1.56,0-2.4-5.6-1.12-5.49-4.58,0-1.64,1.31-2.56,3.12-2.55a4.18,4.18,0,0,1,3.24,1.66l-.91.8a3,3,0,0,0-2.44-1.33c-1.1,0-1.71.56-1.71,1.4,0,2.06,5.5,1,5.5,4.53,0,1.84-1.6,2.76-3.32,2.76a4.68,4.68,0,0,1-3.78-1.8Zm9-10.91V2.49H83.85V.93ZM83.85,4.78h1.31v9.46H83.85Zm4.29,0V1.67h1.33V4.78h2.18V5.91H89.47v6.73c0,.44.31.65,1.07.65a7.68,7.68,0,0,0,1.17-.09v1.07a5.64,5.64,0,0,1-1.53.15c-1.42,0-2-.37-2-1.56V5.91H86.62V4.78Zm11.86,0L96.68,15.07c-.69,2.11-2,2.66-3.18,2.66a6,6,0,0,1-1-.11V16.55a5.65,5.65,0,0,0,.71.05c.8,0,2-.18,2.47-2.25L92.42,4.78H93.8L96.36,12h0l2.21-7.22ZM29.94,20.87a1.94,1.94,0,1,1-3.85,0,1.94,1.94,0,1,1,3.85,0ZM28,19.14c-1,0-1.39,1-1.39,1.73S27,22.61,28,22.61s1.39-1,1.39-1.74S29,19.14,28,19.14Zm3.07,3.8V19.25h-.83v-.44h.83v-.88c0-.71.29-1,1-1a2,2,0,0,1,.47.09v.4l-.31,0c-.68,0-.69.34-.66.93v.53h.93v.45h-.93V23Zm6.11.12a1.71,1.71,0,0,1-1.77-1.66H36c0,.91.69,1.18,1.47,1.18a1.28,1.28,0,0,0,1.43-1.15c0-.59-.42-.87-.93-1-1-.32-2.42-.63-2.42-1.91a1.73,1.73,0,0,1,1.84-1.61h0a1.7,1.7,0,0,1,1.93,1.41h-.57c0-.74-.69-.92-1.29-.92s-1.39.31-1.39,1c0,1.68,3.36.92,3.36,3,0,1.29-1.08,1.68-2.27,1.68ZM40.83,21c0,.88.42,1.62,1.43,1.62a1.25,1.25,0,0,0,1.2-1H44a1.73,1.73,0,0,1-1.86,1.44c-1.24,0-1.82-1.06-1.82-2.19a2,2,0,0,1,1.85-2.18c1.38,0,1.88,1,1.88,2.3Zm2.66-.46a1.32,1.32,0,0,0-1.25-1.39h-.1c-.85,0-1.23.68-1.29,1.4Zm3.84-.5c0-.68-.4-.89-1-.89s-1,.15-1,.72h-.53a1.36,1.36,0,0,1,1.55-1.17c.91,0,1.47.42,1.47,1.37v2c0,.32,0,.65.05.93h-.51v-.61h0l0,.06a1.55,1.55,0,0,1-1.29.68,1.28,1.28,0,0,1-.54-2.47,5.59,5.59,0,0,1,1.86-.19ZM46.1,22.61c1.07,0,1.28-.89,1.23-1.75-.7,0-2.16-.11-2.16.93a.82.82,0,0,0,.81.83Zm3.16-3.35h-.82v-.45h.82v-.88l.49-.22v1.11h1v.44h-1V22a.52.52,0,0,0,.43.58.33.33,0,0,0,.14,0,1.24,1.24,0,0,0,.43-.05V23a2.08,2.08,0,0,1-.5.07c-1,0-1-.67-1-1.22Zm2.76,0h-.83v-.45H52v-.88l.49-.22v1.11h.94v.44h-.94V22a.52.52,0,0,0,.42.58.38.38,0,0,0,.15,0,1.27,1.27,0,0,0,.43-.05V23a2.15,2.15,0,0,1-.5.07c-1,0-1-.67-1-1.22Zm2.7,3.68h-.5V17h.5Zm1.45-2c0,.88.41,1.62,1.43,1.62a1.24,1.24,0,0,0,1.19-1h.52a1.74,1.74,0,0,1-1.87,1.44c-1.23,0-1.81-1.06-1.81-2.19a2,2,0,0,1,1.84-2.18c1.39,0,1.89,1,1.89,2.3Zm2.65-.46a1.32,1.32,0,0,0-1.24-1.39h-.1c-.86,0-1.23.68-1.3,1.4Z" transform="translate(0 -0.93)" />
</svg>